<svg width="76" height="76" viewBox="0 0 76 76" fill="none" xmlns="http://www.w3.org/2000/svg">
<g clip-path="url(#clip0_2403_145)">
<path d="M31.673 47.5001C31.3279 47.5001 31.0302 47.5127 30.7199 47.5254L31.2075 47.0377C31.825 46.4202 31.825 45.4164 31.2075 44.7989C30.59 44.1814 29.5862 44.1814 28.9687 44.7989L28.481 45.2866C28.4905 44.9794 28.5064 44.6786 28.5064 44.3334C28.5064 38.5922 24.7887 32.7117 22.591 30.1467C20.7987 28.0567 17.2172 28.0567 15.4217 30.1467C13.224 32.7149 9.50636 38.5922 9.50636 44.3334C9.50636 50.8536 13.3412 56.2401 15.2475 58.5201L0.47186 73.2957C-0.14564 73.9132 -0.14564 74.9171 0.47186 75.5346C0.782193 75.8449 1.18753 75.9969 1.59286 75.9969C1.99819 75.9969 2.40353 75.8417 2.71386 75.5346L17.4927 60.7557C19.7727 62.6621 25.1592 66.4969 31.6794 66.4969C37.4237 66.4969 43.2979 62.7761 45.8629 60.5816C46.911 59.6886 47.5127 58.3807 47.5127 56.9969C47.5127 55.6131 46.9142 54.3052 45.866 53.4122C43.2979 51.2177 37.4237 47.4969 31.6794 47.4969L31.673 47.5001ZM12.673 44.3334C12.673 40.1407 15.3457 35.1057 17.8284 32.2051C18.4237 31.5116 19.5922 31.5116 20.1844 32.2051C22.667 35.1057 25.3397 40.1407 25.3397 44.3334C25.3397 47.6932 23.4492 50.2139 23.2149 50.5527L17.5022 56.2654C15.8175 54.1849 12.673 49.5996 12.673 44.3334ZM43.8014 58.1781C40.9007 60.6607 35.872 63.3334 31.673 63.3334C26.41 63.3334 21.8247 60.1889 19.741 58.5042L25.4537 52.7916C25.7925 52.5572 28.3132 50.6667 31.673 50.6667C35.8689 50.6667 40.9007 53.3394 43.8014 55.8221C44.27 56.2242 44.3397 56.7309 44.3397 57.0001C44.3397 57.2692 44.27 57.7759 43.8014 58.1781ZM75.5345 73.2957L53.504 51.2652C55.3375 50.3057 57.1045 49.1341 58.5232 47.9149C59.5714 47.0219 60.173 45.7141 60.173 44.3302C60.173 43.0794 59.66 41.9046 58.7924 41.0274C63.935 40.3877 68.894 37.2147 71.193 35.2482C72.2412 34.3552 72.8429 33.0474 72.8429 31.6636C72.8429 30.2797 72.2444 28.9719 71.1962 28.0789C69.9359 26.9991 67.8649 25.5519 65.4107 24.3581C67.013 23.8387 68.4855 23.0851 69.6002 21.9672C73.3875 18.1831 75.1355 11.0137 75.9367 5.6684C76.171 4.1009 75.6675 2.5619 74.5497 1.4409C73.4319 0.323072 71.8865 -0.177262 70.319 0.053905C64.9737 0.855072 57.8012 2.60624 54.0202 6.3904C52.9087 7.5019 52.155 8.9744 51.642 10.5831C50.4514 8.13524 49.0074 6.07057 47.9275 4.81024C46.1352 2.72024 42.5537 2.72024 40.7582 4.81024C38.7885 7.1124 35.6155 12.0777 34.979 17.2204C33.117 15.4154 29.8015 15.4851 28.0915 17.4769C26.8692 18.9082 25.6975 20.6721 24.7412 22.4992L2.70436 0.462405C2.08369 -0.155095 1.08303 -0.155095 0.46236 0.462405C-0.158307 1.0799 -0.15514 2.08374 0.46236 2.7044L73.2957 75.5377C73.606 75.8481 74.0114 76.0001 74.4167 76.0001C74.822 76.0001 75.2274 75.8449 75.5377 75.5377C76.1552 74.9202 76.1552 73.9164 75.5377 73.2989L75.5345 73.2957ZM56.468 45.5114C55.0145 46.7591 53.0607 47.9814 51.1322 48.8934L40.5872 38.3484C41.3345 38.1172 42.4049 37.9969 44.3397 37.9969C48.5355 37.9969 53.5674 40.6696 56.468 43.1522C56.9367 43.5544 57.0064 44.0611 57.0064 44.3302C57.0064 44.5994 56.9367 45.1092 56.468 45.5114ZM69.673 31.6667C69.673 31.9359 69.6034 32.4426 69.1347 32.8447C66.234 35.3274 61.2054 38.0001 57.0064 38.0001C56.5314 38.0001 55.043 37.9811 54.4604 37.9336C51.6009 36.2996 47.9465 34.8334 44.3397 34.8334C43.9945 34.8334 43.7 34.8429 43.3929 34.8524L50.7807 27.4614C51.1227 27.2271 53.6465 25.3334 57.0032 25.3334C61.199 25.3334 66.2309 28.0061 69.1315 30.4887C69.6002 30.8909 69.6699 31.3976 69.6699 31.6667H69.673ZM56.2559 8.6324C58.7322 6.15607 63.8939 4.22124 70.7845 3.18574C71.3514 3.10974 71.9055 3.2839 72.3045 3.6829C72.7035 4.0819 72.884 4.63607 72.7985 5.19974C71.7662 12.0936 69.8345 17.2552 67.355 19.7316C64.5969 22.4897 57.6397 22.3441 54.0392 21.9482C53.6497 18.3382 53.523 11.3557 56.2495 8.62924L56.2559 8.6324ZM43.1617 6.87174C43.757 6.17824 44.9255 6.17824 45.5177 6.87174C47.9814 9.75024 50.6255 14.7282 50.6667 18.9019C50.6667 18.9557 50.6699 19.0064 50.673 19.0602C50.6667 22.3631 48.7857 24.8806 48.5545 25.2162L41.1572 32.6136C41.1635 32.3064 41.1762 32.0119 41.1762 31.6699C41.1762 28.0567 39.7037 24.3961 38.0665 21.5334C38.0665 21.4732 38.0095 19.5036 38.0095 19.0032C38.0095 14.8106 40.6822 9.77557 43.1649 6.8749L43.1617 6.87174ZM30.495 19.5384C31.0904 18.8449 32.2589 18.8449 32.851 19.5384C35.3337 22.4391 38.0064 27.4741 38.0064 31.6667C38.0064 33.6016 37.8892 34.6719 37.658 35.4192L27.113 24.8742C28.0219 22.9552 29.241 21.0046 30.495 19.5384Z" fill="black"/>
</g>
<defs>
<clipPath id="clip0_2403_145">
<rect width="76" height="76" fill="white"/>
</clipPath>
</defs>
</svg>
