<svg width="600" height="600" viewBox="0 0 100 125" fill="none" xmlns="http://www.w3.org/2000/svg">
<path d="M50.0001 26.653C60.9101 26.653 69.7551 35.506 69.7551 46.408C69.7551 57.318 60.9101 66.163 50.0001 66.163C39.0921 66.163 30.2451 57.318 30.2451 46.408C30.2451 35.506 39.0921 26.653 50.0001 26.653Z" fill="black"/>
<path d="M91.6902 21.0331C87.3152 13.9521 78.9032 9.37805 70.2602 9.37805C61.1642 9.37805 53.8332 14.1731 49.9992 22.5781C46.1662 14.1731 38.8362 9.37805 29.7382 9.37805C21.0972 9.37805 12.6852 13.9521 8.3102 21.0331C3.8202 28.2981 3.9002 37.4031 8.5322 46.6701C12.8272 55.2591 21.7202 62.565 30.3222 69.6311C38.8012 76.6001 46.8122 83.1841 49.3652 90.1801C49.4622 90.4461 49.7172 90.6221 49.9992 90.6221H50.0012C50.2812 90.6221 50.5352 90.4451 50.6342 90.1801C53.1872 83.1881 61.1972 76.6041 69.6772 69.6331C78.2812 62.5651 87.1752 55.2541 91.4662 46.6701C96.1012 37.3991 96.1812 28.2951 91.6902 21.0331ZM29.7392 10.7281C38.8022 10.7281 45.9582 15.7701 49.3702 24.5581C49.5652 25.0681 50.4382 25.0631 50.6292 24.5601C54.0422 15.7701 61.1982 10.7281 70.2612 10.7281C78.4452 10.7281 86.4062 15.0521 90.5402 21.7441C94.7762 28.5981 94.6772 37.2341 90.2612 46.0661C86.0932 54.4021 77.3122 61.6131 68.8142 68.5961C60.7812 75.1981 53.1752 81.4481 50.0012 88.2001C46.8272 81.4461 39.2192 75.192 31.1812 68.5881C22.6872 61.6091 13.9062 54.3941 9.7422 46.0671C5.3262 37.2341 5.2262 28.5961 9.4612 21.7451C13.5952 15.0511 21.5562 10.7281 29.7392 10.7281Z" fill="black"/>
</svg>
