<svg width="79" height="89" viewBox="0 0 79 89" fill="none" xmlns="http://www.w3.org/2000/svg">
<g clip-path="url(#clip0_2549_651)">
<path d="M39.5 8.01443C50.0465 8.01443 51.2973 8.0587 55.4613 8.27268C59.7668 8.49404 64.2007 9.59346 67.3376 13.1094C70.5042 16.6585 71.4555 21.5801 71.653 26.4205C71.8439 31.0875 71.8834 32.4895 71.8834 44.3101C71.8834 56.1307 71.8439 57.5327 71.653 62.1997C71.4588 66.9995 70.4548 72.017 67.3376 75.5108C64.171 79.06 59.7833 80.1262 55.4613 80.3475C51.2973 80.5615 50.0465 80.6058 39.5 80.6058C28.9535 80.6058 27.7027 80.5615 23.5387 80.3475C19.2892 80.1299 14.7533 78.9788 11.6624 75.5108C8.51225 71.9801 7.5445 67.0106 7.347 62.1997C7.15608 57.5327 7.11658 56.1307 7.11658 44.3101C7.11658 32.4895 7.15608 31.0875 7.347 26.4205C7.54121 21.6391 8.55504 16.5921 11.6624 13.1094C14.8224 9.56764 19.2299 8.49404 23.5387 8.27268C27.7027 8.0587 28.9535 8.01443 39.5 8.01443ZM39.5 0.0380859C28.7725 0.0380859 27.4262 0.0897366 23.2128 0.303718C17.1068 0.617312 11.0435 2.52101 6.62942 7.46841C2.19883 12.4343 0.516792 19.2153 0.237 26.0553C0.0460833 30.7776 0 32.2866 0 44.3101C0 56.3336 0.0460833 57.8426 0.237 62.5649C0.516792 69.4013 2.22187 76.2155 6.62942 81.1518C11.0567 86.114 17.1167 88.0029 23.2128 88.3165C27.4262 88.5305 28.7725 88.5821 39.5 88.5821C50.2275 88.5821 51.5738 88.5305 55.7872 88.3165C61.8899 88.0029 67.9598 86.0955 72.3706 81.1518C76.8045 76.1823 78.4832 69.405 78.763 62.5649C78.9539 57.8426 79 56.3336 79 44.3101C79 32.2866 78.9539 30.7776 78.763 26.0553C78.4832 19.2116 76.7814 12.4121 72.3706 7.46841C67.9499 2.51363 61.8735 0.613622 55.7872 0.303718C51.5738 0.0897366 50.2275 0.0380859 39.5 0.0380859Z" fill="#2B3990"/>
<path d="M39.5001 21.5767C28.2985 21.5767 19.2168 31.7555 19.2168 44.3103C19.2168 56.8652 28.2985 67.044 39.5001 67.044C50.7016 67.044 59.7833 56.8652 59.7833 44.3103C59.7833 31.7555 50.7016 21.5767 39.5001 21.5767ZM39.5001 59.0677C32.2288 59.0677 26.3334 52.4601 26.3334 44.3103C26.3334 36.1606 32.2288 29.553 39.5001 29.553C46.7713 29.553 52.6667 36.1606 52.6667 44.3103C52.6667 52.4601 46.7713 59.0677 39.5001 59.0677Z" fill="#2B3990"/>
<path d="M60.5862 25.9891C63.204 25.9891 65.3262 23.6105 65.3262 20.6764C65.3262 17.7423 63.204 15.3638 60.5862 15.3638C57.9684 15.3638 55.8462 17.7423 55.8462 20.6764C55.8462 23.6105 57.9684 25.9891 60.5862 25.9891Z" fill="#2B3990"/>
</g>
<defs>
<clipPath id="clip0_2549_651">
<rect width="79" height="88.544" fill="white" transform="translate(0 0.0380859)"/>
</clipPath>
</defs>
</svg>
