<svg width="79" height="73" viewBox="0 0 79 73" fill="none" xmlns="http://www.w3.org/2000/svg">
<g clip-path="url(#clip0_2403_139)">
<path d="M77.0744 36.1927C75.5932 34.5746 73.4766 33.6043 71.2054 33.4917C71.9986 31.9983 72.443 30.3345 72.443 28.7346C72.443 24.4367 69.8953 20.446 65.8597 18.2864V18.2682C65.8597 11.5583 59.9544 6.10152 52.693 6.10152C52.0314 6.10152 51.3632 6.15931 50.6522 6.2749C48.4731 2.43631 44.2433 0.0181885 39.5264 0.0181885C34.8094 0.0181885 30.5763 2.43631 28.3972 6.27794C27.6862 6.16236 27.018 6.10456 26.3564 6.10456C19.095 6.10456 13.1897 11.5613 13.1897 18.2712C13.1897 18.691 13.2128 19.1107 13.2589 19.5335C9.18377 21.6779 6.6064 25.6747 6.6064 30.009C6.6064 31.2409 6.81706 32.4211 7.2351 33.5434C5.19427 33.7837 3.31144 34.7175 1.96185 36.1927C0.391729 37.9082 -0.273187 40.1621 0.131688 42.3673C2.5774 55.6594 11.9949 66.7797 25.9713 72.8752L52.7292 73.0212L53.065 72.8752C67.0414 66.7767 76.4556 55.6564 78.9013 42.3673C79.3061 40.1591 78.6412 37.9082 77.0711 36.1927H77.0744ZM15.7408 21.7752L16.9389 21.2764C16.9389 21.2764 16.4781 18.8765 16.4781 18.2712C16.4781 13.2403 20.9087 9.14623 26.3531 9.14623C28.1438 9.14623 30.3261 9.84886 30.3261 9.84886L30.8627 8.58657C32.2946 5.22856 35.6949 3.05986 39.5231 3.05986C43.3513 3.05986 46.7483 5.22856 48.1801 8.58657L48.7167 9.84886C48.7167 9.84886 50.8859 9.14623 52.6897 9.14623C58.1342 9.14623 62.5647 13.2403 62.5647 18.2712C62.5647 18.3899 62.3837 20.0993 62.3837 20.0993L63.4173 20.5434C66.9492 22.0642 69.1448 25.2002 69.1448 28.7346C69.1448 30.3862 68.4799 32.1382 67.3607 33.4826H10.7704C10.1877 32.4028 9.90135 31.2622 9.90135 30.009C9.90135 26.4807 12.1924 23.2474 15.7408 21.7752ZM75.6557 41.8594C73.4141 54.0534 64.7998 64.2856 51.9919 69.9826H27.0542C14.2464 64.2856 5.62877 54.0564 3.38715 41.8594C3.14356 40.5362 3.54185 39.1888 4.48327 38.1577C5.43127 37.1174 6.81706 36.5243 8.28185 36.5243H70.7643C72.2258 36.5243 73.6116 37.1174 74.5596 38.1577C75.501 39.1888 75.8993 40.5362 75.6557 41.8594ZM29.6481 18.2712C29.6481 16.5922 31.1227 15.2296 32.9397 15.2296C34.7567 15.2296 36.2314 16.5922 36.2314 18.2712C36.2314 19.9502 34.7567 21.3129 32.9397 21.3129C31.1227 21.3129 29.6481 19.9502 29.6481 18.2712ZM46.1064 27.3658C46.1064 25.6929 47.5745 24.3363 49.3849 24.3363C51.1953 24.3363 52.6634 25.6929 52.6634 27.3658C52.6634 29.0387 51.1953 30.3953 49.3849 30.3953C47.5745 30.3953 46.1064 29.0387 46.1064 27.3658Z" fill="black"/>
</g>
<defs>
<clipPath id="clip0_2403_139">
<rect width="79" height="73" fill="white"/>
</clipPath>
</defs>
</svg>
