<svg width="300" height="280" viewBox="0 0 494 314" fill="none" xmlns="http://www.w3.org/2000/svg">
<mask id="path-1-outside-1_2537_551" maskUnits="userSpaceOnUse" x="29" y="40" width="330" height="171" fill="black">
<rect fill="white" x="29" y="40" width="330" height="171"/>
<path d="M31.68 55.04H149.58V205.7H135.36V68.72H45.54V206.42H31.68V55.04ZM40.86 117.5H141.3V130.82H40.86V117.5ZM40.68 181.22H141.66V194.72H40.68V181.22ZM191.52 80.78H348.66V94.46H191.52V80.78ZM227.52 161.06H311.4V174.74H227.52V161.06ZM262.62 42.98H276.84V208.4H262.62V42.98ZM258.48 85.28L270.54 89.42C254.52 127.58 226.26 161.96 195.12 180.14C192.96 176.72 188.46 171.68 185.4 168.98C215.46 153.32 244.08 119.84 258.48 85.28ZM281.34 85.82C295.56 120.02 323.82 152.78 354.96 167.72C351.54 170.6 346.86 176 344.7 179.78C312.84 162.14 285.12 127.76 269.28 89.96L281.34 85.82Z"/>
</mask>
<path d="M31.68 55.04H149.58V205.7H135.36V68.72H45.54V206.42H31.68V55.04ZM40.86 117.5H141.3V130.82H40.86V117.5ZM40.68 181.22H141.66V194.72H40.68V181.22ZM191.52 80.78H348.66V94.46H191.52V80.78ZM227.52 161.06H311.4V174.74H227.52V161.06ZM262.62 42.98H276.84V208.4H262.62V42.98ZM258.48 85.28L270.54 89.42C254.52 127.58 226.26 161.96 195.12 180.14C192.96 176.72 188.46 171.68 185.4 168.98C215.46 153.32 244.08 119.84 258.48 85.28ZM281.34 85.82C295.56 120.02 323.82 152.78 354.96 167.72C351.54 170.6 346.86 176 344.7 179.78C312.84 162.14 285.12 127.76 269.28 89.96L281.34 85.82Z" fill="#2B3990"/>
<path d="M31.68 55.04V53.04H29.68V55.04H31.68ZM149.58 55.04H151.58V53.04H149.58V55.04ZM149.58 205.7V207.7H151.58V205.7H149.58ZM135.36 205.7H133.36V207.7H135.36V205.7ZM135.36 68.72H137.36V66.72H135.36V68.72ZM45.54 68.72V66.72H43.54V68.72H45.54ZM45.54 206.42V208.42H47.54V206.42H45.54ZM31.68 206.42H29.68V208.42H31.68V206.42ZM40.86 117.5V115.5H38.86V117.5H40.86ZM141.3 117.5H143.3V115.5H141.3V117.5ZM141.3 130.82V132.82H143.3V130.82H141.3ZM40.86 130.82H38.86V132.82H40.86V130.82ZM40.68 181.22V179.22H38.68V181.22H40.68ZM141.66 181.22H143.66V179.22H141.66V181.22ZM141.66 194.72V196.72H143.66V194.72H141.66ZM40.68 194.72H38.68V196.72H40.68V194.72ZM31.68 57.04H149.58V53.04H31.68V57.04ZM147.58 55.04V205.7H151.58V55.04H147.58ZM149.58 203.7H135.36V207.7H149.58V203.7ZM137.36 205.7V68.72H133.36V205.7H137.36ZM135.36 66.72H45.54V70.72H135.36V66.72ZM43.54 68.72V206.42H47.54V68.72H43.54ZM45.54 204.42H31.68V208.42H45.54V204.42ZM33.68 206.42V55.04H29.68V206.42H33.68ZM40.86 119.5H141.3V115.5H40.86V119.5ZM139.3 117.5V130.82H143.3V117.5H139.3ZM141.3 128.82H40.86V132.82H141.3V128.82ZM42.86 130.82V117.5H38.86V130.82H42.86ZM40.68 183.22H141.66V179.22H40.68V183.22ZM139.66 181.22V194.72H143.66V181.22H139.66ZM141.66 192.72H40.68V196.72H141.66V192.72ZM42.68 194.72V181.22H38.68V194.72H42.68ZM191.52 80.78V78.78H189.52V80.78H191.52ZM348.66 80.78H350.66V78.78H348.66V80.78ZM348.66 94.46V96.46H350.66V94.46H348.66ZM191.52 94.46H189.52V96.46H191.52V94.46ZM227.52 161.06V159.06H225.52V161.06H227.52ZM311.4 161.06H313.4V159.06H311.4V161.06ZM311.4 174.74V176.74H313.4V174.74H311.4ZM227.52 174.74H225.52V176.74H227.52V174.74ZM262.62 42.98V40.98H260.62V42.98H262.62ZM276.84 42.98H278.84V40.98H276.84V42.98ZM276.84 208.4V210.4H278.84V208.4H276.84ZM262.62 208.4H260.62V210.4H262.62V208.4ZM258.48 85.28L259.129 83.3884L257.355 82.7793L256.634 84.5108L258.48 85.28ZM270.54 89.42L272.384 90.1942L273.212 88.2226L271.189 87.5284L270.54 89.42ZM195.12 180.14L193.429 181.208L194.46 182.841L196.128 181.867L195.12 180.14ZM185.4 168.98L184.476 167.206L181.892 168.552L184.077 170.48L185.4 168.98ZM281.34 85.82L283.187 85.0521L282.466 83.3189L280.691 83.9284L281.34 85.82ZM354.96 167.72L356.248 169.25L358.616 167.256L355.825 165.917L354.96 167.72ZM344.7 179.78L343.731 181.53L345.458 182.486L346.436 180.772L344.7 179.78ZM269.28 89.96L268.631 88.0684L266.61 88.7622L267.435 90.733L269.28 89.96ZM191.52 82.78H348.66V78.78H191.52V82.78ZM346.66 80.78V94.46H350.66V80.78H346.66ZM348.66 92.46H191.52V96.46H348.66V92.46ZM193.52 94.46V80.78H189.52V94.46H193.52ZM227.52 163.06H311.4V159.06H227.52V163.06ZM309.4 161.06V174.74H313.4V161.06H309.4ZM311.4 172.74H227.52V176.74H311.4V172.74ZM229.52 174.74V161.06H225.52V174.74H229.52ZM262.62 44.98H276.84V40.98H262.62V44.98ZM274.84 42.98V208.4H278.84V42.98H274.84ZM276.84 206.4H262.62V210.4H276.84V206.4ZM264.62 208.4V42.98H260.62V208.4H264.62ZM257.831 87.1716L269.891 91.3116L271.189 87.5284L259.129 83.3884L257.831 87.1716ZM268.696 88.6458C252.812 126.481 224.812 160.489 194.112 178.413L196.128 181.867C227.708 163.431 256.228 128.679 272.384 90.1942L268.696 88.6458ZM196.811 179.072C194.529 175.459 189.894 170.278 186.723 167.48L184.077 170.48C187.026 173.082 191.391 177.981 193.429 181.208L196.811 179.072ZM186.324 170.754C216.867 154.842 245.778 120.966 260.326 86.0492L256.634 84.5108C242.382 118.714 214.053 151.798 184.476 167.206L186.324 170.754ZM279.493 86.5878C293.865 121.153 322.432 154.332 354.095 169.523L355.825 165.917C325.208 151.228 297.255 118.887 283.187 85.0521L279.493 86.5878ZM353.672 166.19C350.099 169.199 345.257 174.775 342.964 178.788L346.436 180.772C348.463 177.225 352.981 172.001 356.248 169.25L353.672 166.19ZM345.669 178.03C314.291 160.657 286.834 126.676 271.125 89.187L267.435 90.733C283.406 128.844 311.389 163.623 343.731 181.53L345.669 178.03ZM269.929 91.8516L281.989 87.7116L280.691 83.9284L268.631 88.0684L269.929 91.8516Z" fill="black" mask="url(#path-1-outside-1_2537_551)"/>
<mask id="path-3-outside-2_2537_551" maskUnits="userSpaceOnUse" x="14" y="85" width="363" height="93" fill="black">
<rect fill="white" x="14" y="85" width="363" height="93"/>
<path d="M50 159L31.3 120.3L30.8 120.5L31.4 132.3V159H18.8V89H28.9L47.3 129.2L47.8 129L46.7 116.7V89H59.3V159H50ZM88.3977 159V107.9H101.598V159H88.3977ZM88.3977 89H101.598V102.5H88.3977V89ZM130.175 107.9H140.875L142.375 111.5C143.842 110.167 145.208 109.233 146.475 108.7C147.808 108.167 149.775 107.9 152.375 107.9H161.375C164.175 110.633 166.375 114.167 167.975 118.5C169.575 122.833 170.375 127.6 170.375 132.8C170.375 143.933 167.042 152.667 160.375 159H151.875C148.342 159 145.542 158.067 143.475 156.2V174H130.175V107.9ZM143.475 148.5H153.075C155.542 144.3 156.775 139.2 156.775 133.2C156.775 127.2 155.508 122.267 152.975 118.4H143.475V148.5ZM197.538 107.9H208.238L209.738 111.5C211.205 110.167 212.572 109.233 213.838 108.7C215.172 108.167 217.138 107.9 219.738 107.9H228.738C231.538 110.633 233.738 114.167 235.338 118.5C236.938 122.833 237.738 127.6 237.738 132.8C237.738 143.933 234.405 152.667 227.738 159H219.238C215.705 159 212.905 158.067 210.838 156.2V174H197.538V107.9ZM210.838 148.5H220.438C222.905 144.3 224.138 139.2 224.138 133.2C224.138 127.2 222.872 122.267 220.338 118.4H210.838V148.5ZM295.302 159H273.502C266.835 152.8 263.502 144.333 263.502 133.6C263.502 128.2 264.235 123.5 265.702 119.5C267.235 115.5 269.635 111.633 272.902 107.9H296.302C299.768 111.9 302.135 115.8 303.402 119.6C304.668 123.333 305.302 128 305.302 133.6C305.302 144.333 301.968 152.8 295.302 159ZM280.602 148.5H288.202C290.602 143.833 291.802 138.533 291.802 132.6C291.802 126.667 290.568 121.933 288.102 118.4H280.602C278.202 121.8 277.002 126.633 277.002 132.9C277.002 139.1 278.202 144.3 280.602 148.5ZM354.66 107.9H365.26C368.193 111.633 370.193 115.367 371.26 119.1C372.327 122.833 372.86 127.5 372.86 133.1V159H359.56V132.1C359.56 125.767 358.693 121.2 356.96 118.4H345.76V159H332.46V107.9H342.86L344.66 111.5C346.127 110.167 347.493 109.233 348.76 108.7C350.093 108.167 352.06 107.9 354.66 107.9Z"/>
</mask>
<path d="M50 159L31.3 120.3L30.8 120.5L31.4 132.3V159H18.8V89H28.9L47.3 129.2L47.8 129L46.7 116.7V89H59.3V159H50ZM88.3977 159V107.9H101.598V159H88.3977ZM88.3977 89H101.598V102.5H88.3977V89ZM130.175 107.9H140.875L142.375 111.5C143.842 110.167 145.208 109.233 146.475 108.7C147.808 108.167 149.775 107.9 152.375 107.9H161.375C164.175 110.633 166.375 114.167 167.975 118.5C169.575 122.833 170.375 127.6 170.375 132.8C170.375 143.933 167.042 152.667 160.375 159H151.875C148.342 159 145.542 158.067 143.475 156.2V174H130.175V107.9ZM143.475 148.5H153.075C155.542 144.3 156.775 139.2 156.775 133.2C156.775 127.2 155.508 122.267 152.975 118.4H143.475V148.5ZM197.538 107.9H208.238L209.738 111.5C211.205 110.167 212.572 109.233 213.838 108.7C215.172 108.167 217.138 107.9 219.738 107.9H228.738C231.538 110.633 233.738 114.167 235.338 118.5C236.938 122.833 237.738 127.6 237.738 132.8C237.738 143.933 234.405 152.667 227.738 159H219.238C215.705 159 212.905 158.067 210.838 156.2V174H197.538V107.9ZM210.838 148.5H220.438C222.905 144.3 224.138 139.2 224.138 133.2C224.138 127.2 222.872 122.267 220.338 118.4H210.838V148.5ZM295.302 159H273.502C266.835 152.8 263.502 144.333 263.502 133.6C263.502 128.2 264.235 123.5 265.702 119.5C267.235 115.5 269.635 111.633 272.902 107.9H296.302C299.768 111.9 302.135 115.8 303.402 119.6C304.668 123.333 305.302 128 305.302 133.6C305.302 144.333 301.968 152.8 295.302 159ZM280.602 148.5H288.202C290.602 143.833 291.802 138.533 291.802 132.6C291.802 126.667 290.568 121.933 288.102 118.4H280.602C278.202 121.8 277.002 126.633 277.002 132.9C277.002 139.1 278.202 144.3 280.602 148.5ZM354.66 107.9H365.26C368.193 111.633 370.193 115.367 371.26 119.1C372.327 122.833 372.86 127.5 372.86 133.1V159H359.56V132.1C359.56 125.767 358.693 121.2 356.96 118.4H345.76V159H332.46V107.9H342.86L344.66 111.5C346.127 110.167 347.493 109.233 348.76 108.7C350.093 108.167 352.06 107.9 354.66 107.9Z" fill="white"/>
<path d="M50 159L46.3984 160.74L47.4903 163H50V159ZM31.3 120.3L34.9016 118.56L33.2784 115.201L29.8144 116.586L31.3 120.3ZM30.8 120.5L29.3144 116.786L26.66 117.848L26.8052 120.703L30.8 120.5ZM31.4 132.3H35.4V132.198L35.3948 132.097L31.4 132.3ZM31.4 159V163H35.4V159H31.4ZM18.8 159H14.8V163H18.8V159ZM18.8 89V85H14.8V89H18.8ZM28.9 89L32.5371 87.3352L31.4682 85H28.9V89ZM47.3 129.2L43.6629 130.865L45.2484 134.329L48.7856 132.914L47.3 129.2ZM47.8 129L49.2856 132.714L52.0492 131.608L51.7841 128.644L47.8 129ZM46.7 116.7H42.7V116.879L42.7159 117.056L46.7 116.7ZM46.7 89V85H42.7V89H46.7ZM59.3 89H63.3V85H59.3V89ZM59.3 159V163H63.3V159H59.3ZM53.6016 157.26L34.9016 118.56L27.6984 122.04L46.3984 160.74L53.6016 157.26ZM29.8144 116.586L29.3144 116.786L32.2856 124.214L32.7856 124.014L29.8144 116.586ZM26.8052 120.703L27.4052 132.503L35.3948 132.097L34.7948 120.297L26.8052 120.703ZM27.4 132.3V159H35.4V132.3H27.4ZM31.4 155H18.8V163H31.4V155ZM22.8 159V89H14.8V159H22.8ZM18.8 93H28.9V85H18.8V93ZM25.2629 90.6647L43.6629 130.865L50.9371 127.535L32.5371 87.3352L25.2629 90.6647ZM48.7856 132.914L49.2856 132.714L46.3144 125.286L45.8144 125.486L48.7856 132.914ZM51.7841 128.644L50.6841 116.344L42.7159 117.056L43.8159 129.356L51.7841 128.644ZM50.7 116.7V89H42.7V116.7H50.7ZM46.7 93H59.3V85H46.7V93ZM55.3 89V159H63.3V89H55.3ZM59.3 155H50V163H59.3V155ZM88.3977 159H84.3977V163H88.3977V159ZM88.3977 107.9V103.9H84.3977V107.9H88.3977ZM101.598 107.9H105.598V103.9H101.598V107.9ZM101.598 159V163H105.598V159H101.598ZM88.3977 89V85H84.3977V89H88.3977ZM101.598 89H105.598V85H101.598V89ZM101.598 102.5V106.5H105.598V102.5H101.598ZM88.3977 102.5H84.3977V106.5H88.3977V102.5ZM92.3977 159V107.9H84.3977V159H92.3977ZM88.3977 111.9H101.598V103.9H88.3977V111.9ZM97.5977 107.9V159H105.598V107.9H97.5977ZM101.598 155H88.3977V163H101.598V155ZM88.3977 93H101.598V85H88.3977V93ZM97.5977 89V102.5H105.598V89H97.5977ZM101.598 98.5H88.3977V106.5H101.598V98.5ZM92.3977 102.5V89H84.3977V102.5H92.3977ZM130.175 107.9V103.9H126.175V107.9H130.175ZM140.875 107.9L144.567 106.362L143.542 103.9H140.875V107.9ZM142.375 111.5L138.683 113.038L140.866 118.278L145.066 114.46L142.375 111.5ZM146.475 108.7L144.989 104.986L144.956 104.999L144.923 105.013L146.475 108.7ZM161.375 107.9L164.169 105.038L163.004 103.9H161.375V107.9ZM167.975 118.5L171.727 117.115L167.975 118.5ZM160.375 159V163H161.972L163.13 161.9L160.375 159ZM143.475 156.2L146.156 153.232L139.475 147.197V156.2H143.475ZM143.475 174V178H147.475V174H143.475ZM130.175 174H126.175V178H130.175V174ZM143.475 148.5H139.475V152.5H143.475V148.5ZM153.075 148.5V152.5H155.365L156.524 150.526L153.075 148.5ZM152.975 118.4L156.321 116.208L155.136 114.4H152.975V118.4ZM143.475 118.4V114.4H139.475V118.4H143.475ZM130.175 111.9H140.875V103.9H130.175V111.9ZM137.183 109.438L138.683 113.038L146.067 109.962L144.567 106.362L137.183 109.438ZM145.066 114.46C146.332 113.308 147.319 112.685 148.027 112.387L144.923 105.013C143.098 105.782 141.351 107.025 139.684 108.54L145.066 114.46ZM147.961 112.414C148.582 112.165 149.939 111.9 152.375 111.9V103.9C149.611 103.9 147.035 104.168 144.989 104.986L147.961 112.414ZM152.375 111.9H161.375V103.9H152.375V111.9ZM158.581 110.762C160.886 113.012 162.792 116.01 164.223 119.885L171.727 117.115C169.958 112.324 167.464 108.254 164.169 105.038L158.581 110.762ZM164.223 119.885C165.64 123.723 166.375 128.014 166.375 132.8H174.375C174.375 127.186 173.51 121.944 171.727 117.115L164.223 119.885ZM166.375 132.8C166.375 143.086 163.328 150.678 157.62 156.1L163.13 161.9C170.755 154.656 174.375 144.781 174.375 132.8H166.375ZM160.375 155H151.875V163H160.375V155ZM151.875 155C149.057 155 147.306 154.27 146.156 153.232L140.794 159.168C143.777 161.863 147.627 163 151.875 163V155ZM139.475 156.2V174H147.475V156.2H139.475ZM143.475 170H130.175V178H143.475V170ZM134.175 174V107.9H126.175V174H134.175ZM143.475 152.5H153.075V144.5H143.475V152.5ZM156.524 150.526C159.426 145.584 160.775 139.748 160.775 133.2H152.775C152.775 138.652 151.657 143.016 149.626 146.474L156.524 150.526ZM160.775 133.2C160.775 126.65 159.391 120.894 156.321 116.208L149.629 120.592C151.625 123.639 152.775 127.75 152.775 133.2H160.775ZM152.975 114.4H143.475V122.4H152.975V114.4ZM139.475 118.4V148.5H147.475V118.4H139.475ZM197.538 107.9V103.9H193.538V107.9H197.538ZM208.238 107.9L211.931 106.362L210.905 103.9H208.238V107.9ZM209.738 111.5L206.046 113.038L208.229 118.278L212.429 114.46L209.738 111.5ZM213.838 108.7L212.353 104.986L212.319 104.999L212.286 105.013L213.838 108.7ZM228.738 107.9L231.532 105.038L230.367 103.9H228.738V107.9ZM235.338 118.5L239.091 117.115L235.338 118.5ZM227.738 159V163H229.335L230.493 161.9L227.738 159ZM210.838 156.2L213.519 153.232L206.838 147.197V156.2H210.838ZM210.838 174V178H214.838V174H210.838ZM197.538 174H193.538V178H197.538V174ZM210.838 148.5H206.838V152.5H210.838V148.5ZM220.438 148.5V152.5H222.728L223.887 150.526L220.438 148.5ZM220.338 118.4L223.684 116.208L222.5 114.4H220.338V118.4ZM210.838 118.4V114.4H206.838V118.4H210.838ZM197.538 111.9H208.238V103.9H197.538V111.9ZM204.546 109.438L206.046 113.038L213.431 109.962L211.931 106.362L204.546 109.438ZM212.429 114.46C213.695 113.308 214.682 112.685 215.391 112.387L212.286 105.013C210.461 105.782 208.714 107.025 207.048 108.54L212.429 114.46ZM215.324 112.414C215.945 112.165 217.303 111.9 219.738 111.9V103.9C216.974 103.9 214.398 104.168 212.353 104.986L215.324 112.414ZM219.738 111.9H228.738V103.9H219.738V111.9ZM225.944 110.762C228.249 113.012 230.155 116.01 231.586 119.885L239.091 117.115C237.322 112.324 234.828 108.254 231.532 105.038L225.944 110.762ZM231.586 119.885C233.003 123.723 233.738 128.014 233.738 132.8H241.738C241.738 127.186 240.874 121.944 239.091 117.115L231.586 119.885ZM233.738 132.8C233.738 143.086 230.691 150.678 224.983 156.1L230.493 161.9C238.119 154.656 241.738 144.781 241.738 132.8H233.738ZM227.738 155H219.238V163H227.738V155ZM219.238 155C216.42 155 214.669 154.27 213.519 153.232L208.157 159.168C211.141 161.863 214.99 163 219.238 163V155ZM206.838 156.2V174H214.838V156.2H206.838ZM210.838 170H197.538V178H210.838V170ZM201.538 174V107.9H193.538V174H201.538ZM210.838 152.5H220.438V144.5H210.838V152.5ZM223.887 150.526C226.79 145.584 228.138 139.748 228.138 133.2H220.138C220.138 138.652 219.02 143.016 216.989 146.474L223.887 150.526ZM228.138 133.2C228.138 126.65 226.755 120.894 223.684 116.208L216.992 120.592C218.989 123.639 220.138 127.75 220.138 133.2H228.138ZM220.338 114.4H210.838V122.4H220.338V114.4ZM206.838 118.4V148.5H214.838V118.4H206.838ZM295.302 159V163H296.874L298.026 161.929L295.302 159ZM273.502 159L270.778 161.929L271.929 163H273.502V159ZM265.702 119.5L261.967 118.068L261.956 118.096L261.946 118.123L265.702 119.5ZM272.902 107.9V103.9H271.086L269.891 105.266L272.902 107.9ZM296.302 107.9L299.324 105.28L298.128 103.9H296.302V107.9ZM303.402 119.6L299.607 120.865L299.61 120.875L299.614 120.885L303.402 119.6ZM280.602 148.5L277.129 150.485L278.28 152.5H280.602V148.5ZM288.202 148.5V152.5H290.642L291.759 150.329L288.202 148.5ZM288.102 118.4L291.381 116.11L290.187 114.4H288.102V118.4ZM280.602 118.4V114.4H278.529L277.334 116.093L280.602 118.4ZM295.302 155H273.502V163H295.302V155ZM276.226 156.071C270.519 150.763 267.502 143.439 267.502 133.6H259.502C259.502 145.228 263.151 154.837 270.778 161.929L276.226 156.071ZM267.502 133.6C267.502 128.55 268.189 124.336 269.457 120.877L261.946 118.123C260.281 122.664 259.502 127.85 259.502 133.6H267.502ZM269.437 120.932C270.777 117.436 272.908 113.968 275.912 110.534L269.891 105.266C266.362 109.299 263.693 113.564 261.967 118.068L269.437 120.932ZM272.902 111.9H296.302V103.9H272.902V111.9ZM293.279 110.52C296.507 114.244 298.55 117.695 299.607 120.865L307.196 118.335C305.72 113.905 303.03 109.556 299.324 105.28L293.279 110.52ZM299.614 120.885C300.694 124.071 301.302 128.269 301.302 133.6H309.302C309.302 127.731 308.642 122.596 307.189 118.315L299.614 120.885ZM301.302 133.6C301.302 143.439 298.284 150.763 292.578 156.071L298.026 161.929C305.652 154.837 309.302 145.228 309.302 133.6H301.302ZM280.602 152.5H288.202V144.5H280.602V152.5ZM291.759 150.329C294.486 145.027 295.802 139.086 295.802 132.6H287.802C287.802 137.981 286.717 142.64 284.644 146.671L291.759 150.329ZM295.802 132.6C295.802 126.148 294.464 120.525 291.381 116.11L284.822 120.69C286.673 123.341 287.802 127.185 287.802 132.6H295.802ZM288.102 114.4H280.602V122.4H288.102V114.4ZM277.334 116.093C274.272 120.431 273.002 126.201 273.002 132.9H281.002C281.002 127.066 282.131 123.169 283.869 120.707L277.334 116.093ZM273.002 132.9C273.002 139.604 274.299 145.533 277.129 150.485L284.075 146.515C282.104 143.067 281.002 138.596 281.002 132.9H273.002ZM365.26 107.9L368.405 105.429L367.204 103.9H365.26V107.9ZM372.86 159V163H376.86V159H372.86ZM359.56 159H355.56V163H359.56V159ZM356.96 118.4L360.361 116.295L359.188 114.4H356.96V118.4ZM345.76 118.4V114.4H341.76V118.4H345.76ZM345.76 159V163H349.76V159H345.76ZM332.46 159H328.46V163H332.46V159ZM332.46 107.9V103.9H328.46V107.9H332.46ZM342.86 107.9L346.438 106.111L345.332 103.9H342.86V107.9ZM344.66 111.5L341.082 113.289L343.444 118.012L347.351 114.46L344.66 111.5ZM348.76 108.7L347.275 104.986L347.241 104.999L347.208 105.013L348.76 108.7ZM354.66 111.9H365.26V103.9H354.66V111.9ZM362.115 110.371C364.797 113.785 366.518 117.062 367.414 120.199L375.106 118.001C373.869 113.672 371.59 109.481 368.405 105.429L362.115 110.371ZM367.414 120.199C368.345 123.455 368.86 127.723 368.86 133.1H376.86C376.86 127.277 376.309 122.211 375.106 118.001L367.414 120.199ZM368.86 133.1V159H376.86V133.1H368.86ZM372.86 155H359.56V163H372.86V155ZM363.56 159V132.1H355.56V159H363.56ZM363.56 132.1C363.56 125.597 362.706 120.082 360.361 116.295L353.559 120.505C354.681 122.318 355.56 125.936 355.56 132.1H363.56ZM356.96 114.4H345.76V122.4H356.96V114.4ZM341.76 118.4V159H349.76V118.4H341.76ZM345.76 155H332.46V163H345.76V155ZM336.46 159V107.9H328.46V159H336.46ZM332.46 111.9H342.86V103.9H332.46V111.9ZM339.282 109.689L341.082 113.289L348.238 109.711L346.438 106.111L339.282 109.689ZM347.351 114.46C348.617 113.308 349.604 112.685 350.312 112.387L347.208 105.013C345.383 105.782 343.636 107.025 341.969 108.54L347.351 114.46ZM350.246 112.414C350.867 112.165 352.224 111.9 354.66 111.9V103.9C351.896 103.9 349.32 104.168 347.275 104.986L350.246 112.414Z" fill="black" mask="url(#path-3-outside-2_2537_551)"/>
</svg>
