<svg width="99" height="110" viewBox="0 0 99 110" fill="none" xmlns="http://www.w3.org/2000/svg">
<g clip-path="url(#clip0_2549_633)">
<path d="M90.8886 14.9189C95.3497 14.9189 99 19.0224 99 24.0374V26.6808L87.7307 35.7301L49.3649 65.4399L10.999 35.4287V95.4487H8.11138C3.65027 95.4487 0 91.3454 0 86.3303V24.0399C0 19.0248 3.65027 14.9214 8.11138 14.9214L49.3649 49.3053L90.8864 14.9214L90.8886 14.9189Z" fill="#2B3990"/>
<path d="M8.11035 15.5459L49.3584 49.3942L90.8766 15.5459H8.11035Z" fill="url(#paint0_linear_2549_633)"/>
<path d="M11 34.708V93.7931H87.7237V35.0047L49.3608 64.2518L11 34.708Z" fill="#E7E4D7"/>
<path d="M10.9976 94.8215L49.3583 65.2801L49.1847 65.144L10.9976 94.1722V94.8215Z" fill="#B8B7AE"/>
<path d="M87.7213 36.0327L87.7433 94.8211L49.3584 65.2798L87.7213 36.0327Z" fill="#B7B6AD"/>
<path d="M98.9868 27.1245L99 85.8521C98.8067 92.3796 96.2512 94.7095 87.7431 94.8189L87.7212 36.0304L98.989 27.1221L98.9868 27.1245Z" fill="#2B3990"/>
<path d="M8.11035 15.5459L49.3584 49.3942L90.8766 15.5459H8.11035Z" fill="url(#paint1_linear_2549_633)"/>
<path d="M8.11035 15.5459L49.3584 49.3942L90.8766 15.5459H8.11035Z" fill="url(#paint2_linear_2549_633)"/>
<path d="M8.11035 15.5459L49.3584 49.3942L90.8766 15.5459H8.11035Z" fill="url(#paint3_linear_2549_633)"/>
<path d="M8.11035 15.5459L49.3584 49.3942L90.8766 15.5459H8.11035Z" fill="url(#paint4_linear_2549_633)"/>
<path d="M8.11035 15.5459L49.3584 49.3942L90.8766 15.5459H8.11035Z" fill="url(#paint5_linear_2549_633)"/>
<path d="M8.11035 15.5459L49.3584 49.3942L90.8766 15.5459H8.11035Z" fill="url(#paint6_linear_2549_633)"/>
<path d="M8.11035 15.5459L49.3584 49.3942L90.8766 15.5459H8.11035Z" fill="url(#paint7_linear_2549_633)"/>
<path d="M8.11035 15.5459L49.3584 49.3942L90.8766 15.5459H8.11035Z" fill="#F7F5ED"/>
</g>
<defs>
<linearGradient id="paint0_linear_2549_633" x1="23.0018" y1="32.473" x2="75.8846" y2="32.473" gradientUnits="userSpaceOnUse">
<stop stop-color="#F8F6EF"/>
<stop offset="1" stop-color="#E7E4D6"/>
</linearGradient>
<linearGradient id="paint1_linear_2549_633" x1="23.0018" y1="32.473" x2="75.8846" y2="32.473" gradientUnits="userSpaceOnUse">
<stop stop-color="#F8F6EF"/>
<stop offset="1" stop-color="#E7E4D6"/>
</linearGradient>
<linearGradient id="paint2_linear_2549_633" x1="23.0018" y1="32.473" x2="75.8846" y2="32.473" gradientUnits="userSpaceOnUse">
<stop stop-color="#F8F6EF"/>
<stop offset="1" stop-color="#E7E4D6"/>
</linearGradient>
<linearGradient id="paint3_linear_2549_633" x1="23.0018" y1="32.473" x2="75.8846" y2="32.473" gradientUnits="userSpaceOnUse">
<stop stop-color="#F8F6EF"/>
<stop offset="1" stop-color="#E7E4D6"/>
</linearGradient>
<linearGradient id="paint4_linear_2549_633" x1="23.0018" y1="32.473" x2="75.8846" y2="32.473" gradientUnits="userSpaceOnUse">
<stop stop-color="#F8F6EF"/>
<stop offset="1" stop-color="#E7E4D6"/>
</linearGradient>
<linearGradient id="paint5_linear_2549_633" x1="23.0018" y1="32.473" x2="75.8846" y2="32.473" gradientUnits="userSpaceOnUse">
<stop stop-color="#F8F6EF"/>
<stop offset="1" stop-color="#E7E4D6"/>
</linearGradient>
<linearGradient id="paint6_linear_2549_633" x1="23.0018" y1="32.473" x2="75.8846" y2="32.473" gradientUnits="userSpaceOnUse">
<stop stop-color="#F8F6EF"/>
<stop offset="1" stop-color="#E7E4D6"/>
</linearGradient>
<linearGradient id="paint7_linear_2549_633" x1="23.0018" y1="32.473" x2="75.8846" y2="32.473" gradientUnits="userSpaceOnUse">
<stop stop-color="#F8F6EF"/>
<stop offset="1" stop-color="#E7E4D6"/>
</linearGradient>
<clipPath id="clip0_2549_633">
<rect width="99" height="109.573" fill="white" transform="translate(0 0.396973)"/>
</clipPath>
</defs>
</svg>
