<svg width="79" height="73" viewBox="0 0 79 73" fill="none" xmlns="http://www.w3.org/2000/svg">
<g clip-path="url(#clip0_2403_141)">
<path d="M60.8563 15.2692C60.0894 1.1315 48.1735 0 44.4375 0C43.529 0 42.7917 0.681333 42.7917 1.52083C42.7917 2.36033 43.529 3.04167 44.4375 3.04167C49.1479 3.04167 56.9129 4.67504 57.5614 15.2783C47.5382 16.0782 39.5823 23.9227 39.5 33.4583C39.5 41.3058 35.4085 45.625 27.9792 45.625C21.0272 45.625 16.59 41.3849 14.4142 32.6614C13.6374 29.5498 10.721 27.375 7.32067 27.375C3.397 27.375 0.1975 30.222 0.029625 33.8568C0.009875 34.3191 0 34.7845 0 35.2529C0 55.7112 18.4136 72.9909 40.211 72.9909C62.3244 72.9909 79 56.648 79 34.9761V33.3275C79 23.8315 70.998 16.0205 60.8563 15.2692ZM59.25 18.25C63.279 18.25 66.9723 19.5823 69.836 21.7935C67.5812 25.2519 63.5917 27.375 59.25 27.375C54.9083 27.375 50.9583 25.2732 48.6969 21.8422C51.5607 19.6035 55.244 18.25 59.25 18.25ZM75.7083 34.9792C75.7083 54.9173 60.4482 69.9522 40.211 69.9522C20.1977 69.9522 3.29167 54.0626 3.29167 35.256C3.29167 34.8271 3.30154 34.4043 3.32129 33.9845C3.41017 31.9862 5.17121 30.4197 7.32067 30.4197C9.17717 30.4197 10.7769 31.6242 11.2081 33.3458C14.3681 46.0113 22.0739 48.6697 27.9825 48.6697C37.2551 48.6697 42.795 42.9848 42.795 33.4735C42.8246 29.9361 44.1544 26.6785 46.3532 24.093C49.273 28.032 54.0623 30.4197 59.2533 30.4197C64.4706 30.4197 69.283 28.0077 72.1994 24.0322C74.3983 26.5963 75.7116 29.8266 75.7116 33.3336V34.9822L75.7083 34.9792ZM13.17 9.64513V7.60417C13.17 6.76467 13.9007 6.08333 14.8092 6.08333C15.7144 6.08333 16.455 6.76163 16.455 7.60417V9.64513C16.455 12.0146 17.4557 14.2411 19.2661 15.917C21.6658 18.1344 23.0384 21.2035 23.0384 24.3364V25.8603C23.0318 26.6998 22.2945 27.378 21.3893 27.378C20.4808 27.378 19.7434 26.6937 19.7467 25.8542V24.3333C19.7467 22.0034 18.723 19.7191 16.9389 18.0675C14.5064 15.8197 13.1667 12.8298 13.1667 9.64817L13.17 9.64513ZM30.1089 14.086C27.6763 11.8382 26.3366 8.84821 26.3366 5.66663V1.52083C26.3366 0.681333 27.074 0 27.9825 0C28.891 0 29.6283 0.681333 29.6283 1.52083V5.66967C29.6283 8.03913 30.6257 10.2656 32.4394 11.9385C34.8719 14.1863 36.2116 17.1763 36.2116 20.3579V22.8155C36.2116 23.655 35.4743 24.3364 34.5658 24.3364C33.6573 24.3364 32.92 23.655 32.92 22.8155V20.3579C32.92 17.9884 31.9226 15.7619 30.1089 14.086Z" fill="black"/>
</g>
<defs>
<clipPath id="clip0_2403_141">
<rect width="79" height="73" fill="white"/>
</clipPath>
</defs>
</svg>
