<svg width="86" height="96" viewBox="0 0 86 96" fill="none" xmlns="http://www.w3.org/2000/svg">
<g clip-path="url(#clip0_2549_630)">
<path d="M24.5854 24.8237L56.3911 70.8496H61.2644L29.8207 24.8237H24.5854Z" fill="#2B3990"/>
<path d="M43 0.396973C19.2533 0.396973 0 21.7065 0 47.9894C0 74.2723 19.2533 95.5818 43 95.5818C66.7467 95.5818 86 74.2723 86 47.9894C86 21.7065 66.7467 0.396973 43 0.396973ZM53.9757 76.6718L40.1082 56.6235L24.2627 76.6718H15.4549L35.9982 50.6784L14.3333 19.307H32.4722L44.9923 37.6341L59.4798 19.307H68.2768L49.0666 43.603L71.6667 76.6678L53.9757 76.6718Z" fill="#2B3990"/>
</g>
<defs>
<clipPath id="clip0_2549_630">
<rect width="86" height="95.1848" fill="white" transform="translate(0 0.396973)"/>
</clipPath>
</defs>
</svg>
