<svg width="79" height="73" viewBox="0 0 79 73" fill="none" xmlns="http://www.w3.org/2000/svg">
<g clip-path="url(#clip0_2403_143)">
<path d="M68.4733 18.8553C66.439 12.5925 59.8293 8.43454 52.6272 9.21625C49.3618 3.58004 42.9892 0 36.0602 0C25.8528 0 17.4458 6.69471 16.5439 15.2083H16.4616V15.2783C7.24496 16.0478 0 23.2262 0 31.9375C0 41.1629 8.12383 48.6667 18.1042 48.6667C18.3083 48.6667 18.5156 48.6636 18.7197 48.6575C20.5005 52.6482 23.0417 60.301 23.0417 71.4792V73H55.9583V71.4792C55.9583 56.3499 60.6292 47.6112 61.9327 45.4668C62.4956 45.5459 64.0262 45.625 64.1875 45.625C72.3541 45.625 79 39.4839 79 31.9375C79 25.842 74.7175 20.589 68.4733 18.8553ZM52.6831 69.9583H26.3169C26.1128 59.7931 23.8778 52.5205 22.1167 48.3138C26.228 47.5869 30.0365 45.7558 33.0582 43.0213C34.467 44.4388 36.0865 45.6128 37.8542 46.5162V60.8333H41.1458V47.8363C42.9793 48.3838 44.9181 48.6667 46.9062 48.6667C51.1262 48.6667 55.1453 47.3953 58.437 45.0501C56.5673 48.4629 52.9432 56.7362 52.6831 69.9583ZM64.1875 42.5833C62.1533 42.6502 59.9083 41.9598 58.1868 40.9834L58.167 41.0108C54.8688 39.1341 52.6667 35.77 52.6667 31.9375V30.4167H49.375V31.9375C49.375 36.5639 51.8701 40.658 55.6818 43.1369C53.111 44.752 50.0761 45.625 46.9062 45.625C41.9918 45.625 37.4493 43.505 34.444 39.8093L33.2096 38.2915L31.8765 39.7363C28.4235 43.4776 23.4038 45.625 18.1042 45.625C9.93754 45.625 3.29167 39.4839 3.29167 31.9375C3.29167 24.6162 9.54254 18.6211 17.3734 18.2652C26.6164 18.6089 31.4618 24.1721 32.6303 30.4167H35.9582C34.7205 22.3319 28.5552 16.5953 19.8257 15.4273C20.6091 8.48625 27.5907 3.04167 36.0602 3.04167C42.1202 3.04167 47.6666 6.36925 50.1913 11.5188L50.7312 12.6229L52.0182 12.3826C58.1243 11.2359 64.1447 14.8768 65.5272 20.44L65.7576 21.3708L66.7649 21.5837C72.0348 22.7 75.7149 26.9583 75.7149 31.9405C75.7149 37.811 70.547 42.5864 64.1941 42.5864L64.1875 42.5833ZM64.1875 42.5833C64.0624 42.5833 64.2007 42.5833 64.1875 42.5833V42.5833Z" fill="black"/>
</g>
<defs>
<clipPath id="clip0_2403_143">
<rect width="79" height="73" fill="white"/>
</clipPath>
</defs>
</svg>
